<svg xmlns="http://www.w3.org/2000/svg" xmlns:xlink="http://www.w3.org/1999/xlink" width="900" height="472.49"><rect width="900" height="472.49" rx="5" ry="5" class="a"/><svg y="0%" x="0%"><circle cx="20" cy="20" r="6" fill="#ff5f58"/><circle cx="40" cy="20" r="6" fill="#ffbd2e"/><circle cx="60" cy="20" r="6" fill="#18c132"/></svg><svg height="412.49" viewBox="0 0 86 41.249" width="860" x="15" xmlns="http://www.w3.org/2000/svg" xmlns:xlink="http://www.w3.org/1999/xlink" y="50"><style>@keyframes j{0%{transform:translateX(0)}.5%{transform:translateX(-86px)}13.2%{transform:translateX(-172px)}19.2%{transform:translateX(-258px)}26%{transform:translateX(-344px)}29.2%{transform:translateX(-430px)}34.9%{transform:translateX(-516px)}38.9%{transform:translateX(-602px)}42.5%{transform:translateX(-688px)}46.6%{transform:translateX(-774px)}51.9%{transform:translateX(-860px)}63.5%{transform:translateX(-1118px)}64.8%{transform:translateX(-1204px)}80.5%{transform:translateX(-1290px)}80.8%{transform:translateX(-1376px)}to{transform:translateX(-1462px)}}.a{fill:#000}.f{fill:#fff}.g{fill:#1dc121}</style><g font-size="1.67" font-family="Monaco,Consolas,Menlo,'Bitstream Vera Sans Mono','Powerline Symbols',monospace"><defs><symbol id="1"><text y="1.67" class="f">~$</text></symbol><symbol id="2"><text y="1.67" class="f">~$</text><text x="3.006" y="1.67" class="f">freeRoom</text></symbol><symbol id="3"><text y="1.67" class="f">Current</text><text x="8.016" y="1.67" class="f">Free</text><text x="13.026" y="1.67" class="f">Rooms:</text></symbol><symbol id="4"><text y="1.67" class="g">E213</text></symbol><symbol id="5"><text y="1.67" class="g">E306</text></symbol><symbol id="a"><path fill="transparent" d="M0 0h86v19H0z"/></symbol><symbol id="b"><path fill="#f81ce5" d="M0 0h1.102v2.171H0z"/></symbol></defs><path class="a" d="M0 0h86v41.249H0z"/><g style="animation-duration:5.046776s;animation-iteration-count:infinite;animation-name:j;animation-timing-function:steps(1,end)"><svg width="1548"><svg><use xlink:href="#a"/><use xlink:href="#b" x="-.004"/></svg><svg x="86"><use xlink:href="#a"/><use xlink:href="#b" x="2.996"/><use xlink:href="#1"/></svg><svg x="172"><use xlink:href="#a"/><use xlink:href="#b" x="3.996"/><text y="1.67" class="f">~$</text><text x="3.006" y="1.67" class="f">f</text></svg><svg x="258"><use xlink:href="#a"/><use xlink:href="#b" x="4.996"/><text y="1.67" class="f">~$</text><text x="3.006" y="1.67" class="f">fr</text></svg><svg x="344"><use xlink:href="#a"/><use xlink:href="#b" x="5.996"/><text y="1.67" class="f">~$</text><text x="3.006" y="1.67" class="f">fre</text></svg><svg x="430"><use xlink:href="#a"/><use xlink:href="#b" x="6.996"/><text y="1.67" class="f">~$</text><text x="3.006" y="1.67" class="f">free</text></svg><svg x="516"><use xlink:href="#a"/><use xlink:href="#b" x="7.996"/><text y="1.67" class="f">~$</text><text x="3.006" y="1.67" class="f">freeR</text></svg><svg x="602"><use xlink:href="#a"/><use xlink:href="#b" x="8.996"/><text y="1.67" class="f">~$</text><text x="3.006" y="1.67" class="f">freeRo</text></svg><svg x="688"><use xlink:href="#a"/><use xlink:href="#b" x="9.996"/><text y="1.67" class="f">~$</text><text x="3.006" y="1.67" class="f">freeRoo</text></svg><svg x="774"><use xlink:href="#a"/><use xlink:href="#b" x="10.996"/><use xlink:href="#2"/></svg><svg x="860"><use xlink:href="#a"/><use xlink:href="#b" x="-.004" y="2.146"/><use xlink:href="#2"/></svg><svg x="946"><use xlink:href="#a"/><use xlink:href="#b" x="-.004" y="4.317"/><use xlink:href="#2"/><use xlink:href="#3" y="2.171"/></svg><svg x="1032"><use xlink:href="#a"/><use xlink:href="#b" x="-.004" y="6.488"/><use xlink:href="#2"/><use xlink:href="#3" y="2.171"/><use xlink:href="#4" y="4.342"/></svg><svg x="1118"><use xlink:href="#a"/><use xlink:href="#b" x="-.004" y="8.659"/><use xlink:href="#2"/><use xlink:href="#3" y="2.171"/><use xlink:href="#4" y="4.342"/><use xlink:href="#5" y="6.513"/></svg><svg x="1204"><use xlink:href="#a"/><use xlink:href="#b" x="2.996" y="8.659"/><use xlink:href="#2"/><use xlink:href="#3" y="2.171"/><use xlink:href="#4" y="4.342"/><use xlink:href="#5" y="6.513"/><use xlink:href="#1" y="8.684"/></svg><svg x="1290"><use xlink:href="#a"/><use xlink:href="#b" x="-.004" y="10.83"/><use xlink:href="#2"/><use xlink:href="#3" y="2.171"/><use xlink:href="#4" y="4.342"/><use xlink:href="#5" y="6.513"/><use xlink:href="#1" y="8.684"/></svg><svg x="1376"><use xlink:href="#a"/><use xlink:href="#b" x="2.996" y="10.83"/><use xlink:href="#2"/><use xlink:href="#3" y="2.171"/><use xlink:href="#4" y="4.342"/><use xlink:href="#5" y="6.513"/><use xlink:href="#1" y="8.684"/><use xlink:href="#1" y="10.855"/></svg><svg x="1462"><use xlink:href="#a"/><use xlink:href="#b" x="-.004" y="13.001"/><use xlink:href="#2"/><use xlink:href="#3" y="2.171"/><use xlink:href="#4" y="4.342"/><use xlink:href="#5" y="6.513"/><use xlink:href="#1" y="8.684"/><text y="12.525" class="f">~$</text><text x="3.006" y="12.525" class="f">exit</text></svg></svg></g></g></svg></svg>